<svg id="Layer_1" data-name="Layer 1" xmlns="http://www.w3.org/2000/svg" viewBox="0 0 512 512"><title>serving-tray-other</title><polygon points="305.57 474.03 305.59 474.02 305.58 474.02 305.57 474.03" fill="#bb1c81"/><path d="M482.74,299.35c6.07-1.76,15.56-1.09,16.4-7.93,1.12-9-8.35-7.08-14.28-8.13-5.26-.95-10.49-2.12-15.72-3.19,14.75-32.07,15-34.41,11.46-34.75-30-2.9-13.59-25.51-17.31-39.47,10.33-1.72,20-4.86,28.16-12.25-4.78-5.55-13.89,0-16.64-8-4.82-19.6-28.94-12.75-37.45-27.32a25,25,0,0,0-.12-4.09c2.35-2.38,4.7-4.77,7.05-7.18h0l9.93-1.75h0c7.57-2.35,11.45-10.11,6.81-14.13-9.7-8.42-21.27-5.33-31.4,1.93-23.72,1.45-28.66-19.78-40-33.22l8.27-11.75C410,83.81,410,69.79,418.54,62.57c5,2.36,10.55,4,13.34-2.43,2.59-6-.89-10.45-7-11.16-11-1.27-17.93,4.21-21.05,14.66l0,0c-17.72,21.27-38.86,7-58.76,5.66-11.47,0-23.6,2.55-32.22-8.36q.22-6.25.44-12.48c13.36-13.42,15-28.67,4.89-48.5-4.12,24.1-19.08,36-39.47,42.14h0L238.69,60l-8.5-5.23c-17.42-3.42-20.51-23.9-35.71-30-4.87-3.75-10.82-12.44-15.73-7.2-7.71,8.26,4.26,14.51,6.9,22-.29,9.92,7.51,15.1,12.8,21.75h0L187.83,72.88c-9.77,2.35-18.85.16-27.57-4.17l0,0,0,0-1.5-.85h0c-1.91-7.71-2-16.2-9.52-21.42h0c-.93-12.36-5-23.07-16.86-28.73-1.88-.89-7,.79-7.78,2.53C118.45,34.32,134,40.2,137,51c.48,1.67,3,2.78,4.58,4.16L137.3,69.32h0l0,0c-5.93,7.52-16.45,12.56-13.41,24.92-2.56,6.4-8.49,6.1-13.84,7a11.49,11.49,0,0,0-5.61-2.2c-4-12-12.9-24.44-24.11-16.07-9.78,7.32-3.24,20.9,8.89,27.35h0c2.26,2.9,4.55,5.8,6.85,8.71v0c.12,2.54.23,5.05.35,7.59L84.23,138.7h0c-4.57-.61-9.13-1.21-13.69-1.84C62,132,51.07,126.71,46.25,138.33c-4.36,10.51,6.49,13.5,15.34,14.82q1.91,7,3.84,13.95h0v0Q54.78,182.46,44.1,197.8h0c-7.29,4.12-22.55-5.55-22.14,8.65.22,8.35,14.06,4.81,21.93,6.11l6.72,11.91L31.4,243.12c-6.5-.16-14.38-.75-17.54,5.3-3.69,7.09,2.72,12.89,8.4,15,19.57,7.12,13.06,16.75,3.71,27.24C11.17,314.43,48.8,312.06,45.65,330c-2.58,12-28.52,13.64-14.57,33,9.86,9.59,21.36,3.84,32.28,3.44l0,0h0c4,6.17,12.83,14.1,11.3,18.23-10.28,28.07,10.23,34.37,28,43.08.71,7.15,2.16,13.66,11.59,13.06,7.94,6.34-9,30.69,11.49,28,1.85.32,4.28-.15,7.49-1.72,15.36-8.71,29.59-14.43,29.67,12.59,0,17.12,10.53,16.44,21.44,11.84,8.38-3.52,13.86-13.93,25.24-10.28,9.56,6.2,23.11,3.43,30.81,13.78h0c17.9,13.64,36,31.4,51.78-2.29,6-5.11,12.38-9.92,13.4-18.64l19.35,6.43c27.18,31.55,19-17.3,33.46-14.7l12.88.94c5.7,8.88,11.46,22.37,23.83,13.18,7.55-5.6,8.12-18-7.35-20.07v0l0,0c-2.52-8.85,9.37-10.5,9.08-18.23h0c7.46-15.67,28.71-12.58,37-27.16l.14.06c9.13,5.49,18.66,9.21,29.6,6.95,9.07-8.79,12.11-19.91,12.46-32.07,13.62-17-.78-17.88-11.87-20.65h0c-3.55-9.6,1.3-17.94,3.89-26.63.75-1.83,1.42-3.69,2-5.58,10.35-.37,22.77,4.58,28.93-10.6-10-5.77-19.47-3.69-28.75-3.46C465.63,310,473.45,304.28,482.74,299.35ZM305.57,474h0Z" fill="#bb1c81"/><path d="M420.95,7.38c.6-1.38-1.93-5.94-3.38-6.11-5.12-.6-7,3.61-7.42,7.82-.25,2.45,1.25,5.07,2.49,9.51C416.35,13.83,419.38,10.94,420.95,7.38Z" fill="#bb1c81"/><path d="M131.81,343.78c0,5.69,4.75,9.34,10.44,9.34H368.84c5.69,0,10.92-3.65,10.92-9.34V332.45h-248Z" fill="#fff"/><path d="M358.54,313.86h20.6c0-66.12-49-118.81-113-124V179.55h10a10.33,10.33,0,0,0,0-20.66h-41.2a10.33,10.33,0,0,0,0,20.66h10.51v10.26C181.4,195,132,247.73,132,313.86H358.54Zm-103-103.06a102.51,102.51,0,0,1,100.92,82.4H154.62A102.51,102.51,0,0,1,255.55,210.8Z" fill="#fff"/><path d="M302.22,232.88,297,241.77a82.57,82.57,0,0,1,34.58,39.42l9.51-4A93.09,93.09,0,0,0,302.22,232.88Z" fill="#fff"/></svg>